<svg xmlns="http://www.w3.org/2000/svg" viewBox="0 0 260 72" fill="none">
  <!-- Flame icon -->
  <g transform="translate(8, 6)">
    <path d="M20 52 C20 52 6 42 6 28 C6 18 13 10 20 4 C20 4 18 14 24 20 C24 20 22 10 30 4 C30 4 38 14 36 26 C40 20 38 10 38 10 C46 18 46 30 40 40 C38 46 32 50 28 52 C26 50 22 52 20 52Z" fill="#C9943A" opacity="0.9"/>
    <path d="M24 52 C24 52 16 44 16 34 C16 28 20 22 24 18 C24 18 22 26 26 30 C28 24 24 18 24 18 C30 24 32 32 28 40 C30 36 30 28 30 28 C34 34 32 44 28 50 C27 51 25 52 24 52Z" fill="#E8B86D" opacity="0.7"/>
    <ellipse cx="27" cy="54" rx="10" ry="2.5" fill="#C9943A" opacity="0.2"/>
  </g>
  <!-- Brand name -->
  <text x="70" y="38" font-family="Georgia, serif" font-size="22" font-weight="700" letter-spacing="8" fill="#F5EDD8">RADIANCE</text>
  <!-- Tagline -->
  <text x="72" y="56" font-family="Georgia, serif" font-size="8" font-weight="400" letter-spacing="5" fill="#7A6E62">SCENTED CANDLES</text>
  <!-- Decorative line -->
  <line x1="70" y1="44" x2="252" y2="44" stroke="#C9943A" stroke-width="0.5" opacity="0.4"/>
</svg>
